# xmcd
#
# Track frame offsets:
#	150
#	18681
#	38056
#	55846
#	69613
#	86312
#	100608
#	114488
#	133334
#	152404
#	170022
#	188443
#	206550
#	225462
#	246226
#	268205
#	287252
#	303020
#
# Disc length: 4305 seconds
#
# Revision: 0
# Processed by: cddbd v1.4PL0 Copyright (c) Steve Scherf et al.
# Submitted via: dBpowerAMP V4.0
#
DISCID=ea10cf12
DTITLE=許志安 - 許志安
DYEAR=1900
DGENRE=
TTITLE0=只會深愛你
TTITLE1=睡王子
TTITLE2=會過去的
TTITLE3=低處未算低
TTITLE4=上次
TTITLE5=愛到底
TTITLE6=你教我兩度
TTITLE7=這樣那樣
TTITLE8=多謝愛我
TTITLE9=一千次日落
TTITLE10=如果你是我
TTITLE11=順路不順路
TTITLE12=爵士搖擺
TTITLE13=第一次日出
TTITLE14=相信愛
TTITLE15=日落族館
TTITLE16=未簽收
TTITLE17=離開失戀現場
EXTD=
EXTT0=
EXTT1=
EXTT2=
EXTT3=
EXTT4=
EXTT5=
EXTT6=
EXTT7=
EXTT8=
EXTT9=
EXTT10=
EXTT11=
EXTT12=
EXTT13=
EXTT14=
EXTT15=
EXTT16=
EXTT17=
PLAYORDER=
